<svg xmlns="http://www.w3.org/2000/svg" viewBox="0 0 512 512">
  <rect width="512" height="512" fill="#1B3A2E"/>
  <g transform="translate(64, 88) scale(6)">
    <path d="M10 18 Q32 6 54 18 L50 23 Q32 12 14 23 Z" fill="#A07A4F"/>
    <path d="M11 19 Q32 8 53 19 L49 23 Q32 14 15 23 Z" fill="#D9B681"/>
    <path d="M14 23 Q32 13 50 23 L32 55 Z" fill="#E15A3F"/>
    <path d="M16 25 Q32 15 48 25 L32 52 Z" fill="#FFE39A" opacity="0.6"/>
    <circle cx="23" cy="29" r="3.2" fill="#C13A2C"/>
    <circle cx="41" cy="30" r="3.2" fill="#C13A2C"/>
    <circle cx="32" cy="42" r="2.8" fill="#C13A2C"/>
    <circle cx="22" cy="28" r="0.9" fill="#E76050" opacity="0.75"/>
    <circle cx="40" cy="29" r="0.9" fill="#E76050" opacity="0.75"/>
    <circle cx="31" cy="41" r="0.8" fill="#E76050" opacity="0.75"/>
    <ellipse cx="32" cy="22" rx="1.3" ry="0.8" fill="#5C8B3F"/>
    <ellipse cx="27" cy="46" rx="1" ry="0.7" fill="#5C8B3F"/>
  </g>
</svg>
